<svg width="22" height="18" viewBox="0 0 22 18" fill="none" xmlns="http://www.w3.org/2000/svg">
<path d="M0 16.5601C0 17.3557 0.64998 18.0001 1.45081 18.0001H1.47166C0.65857 18.0001 0 17.3557 0 16.5601Z" fill="#FBBC05"/>
<path d="M12.4678 5.4V9.1596L17.5364 5.0712V1.43999C17.5364 0.6444 16.8864 0 16.0856 0H5.10453L5.09473 5.4H12.4678Z" fill="#FBBC05"/>
<path d="M12.4671 12.9207H5.08184L5.07324 18.0003H16.085C16.887 18.0003 17.5358 17.3559 17.5358 16.5603V13.2819L12.4671 9.16107V12.9207Z" fill="#34A853"/>
<path d="M5.1042 0L0 5.4H5.0956L5.1042 0Z" fill="#EA4335"/>
<path d="M0 12.9204V16.56C0 17.3556 0.65857 18 1.47166 18H5.0736L5.0821 12.9204H0Z" fill="#1967D2"/>
<path d="M5.0956 5.3999H0V12.9203H5.0821L5.0956 5.3999Z" fill="#4285F4"/>
<path d="M21.9926 15.2796V2.9197C21.7068 1.27931 19.9077 3.1597 19.9077 3.1597L17.5371 5.0713V13.2804L20.9305 16.0392C22.1557 16.2 21.9926 15.2796 21.9926 15.2796Z" fill="#34A853"/>
<path d="M12.4678 9.15943L17.5377 13.2814V5.07233L12.4678 9.15943Z" fill="#188038"/>
</svg>
