<svg width="82" height="98" viewBox="0 0 82 98" fill="none" xmlns="http://www.w3.org/2000/svg">
<path d="M24.696 82.8397V20.6097H1.862V12.5737H56.84V20.6097H34.202V82.8397H24.696ZM17.64 82.8397V78.8217C17.64 78.2337 17.7707 77.7764 18.032 77.4497C18.2933 77.0577 18.6853 76.829 19.208 76.7637L26.558 75.1957L27.636 82.8397H17.64ZM31.262 82.8397L32.34 75.1957L39.69 76.7637C40.2127 76.829 40.6047 77.0577 40.866 77.4497C41.1273 77.7764 41.258 78.2337 41.258 78.8217V82.8397H31.262ZM48.804 18.1597L56.84 20.6097V29.5277H52.332C51.8093 29.5277 51.352 29.4297 50.96 29.2337C50.6333 28.9724 50.4047 28.5477 50.274 27.9597L48.804 18.1597ZM9.898 18.1597L8.428 27.9597C8.36267 28.5477 8.134 28.9724 7.742 29.2337C7.35 29.4297 6.89267 29.5277 6.37 29.5277H1.862V20.6097L9.898 18.1597Z" fill="#69ADF6"/>
<rect x="15.2852" y="52.5458" width="11" height="25" transform="rotate(-47.869 15.2852 52.5458)" fill="white"/>
<path d="M14.0009 44.3397L36.9999 64.5711L78.4996 18.8391" stroke="#F6696B" stroke-width="7" stroke-linecap="round"/>
</svg>
