<svg xmlns="http://www.w3.org/2000/svg" width="31" height="32" viewBox="0 0 31 32" fill="none">
  <mask id="path-1-inside-1_9_201" fill="white">
    <path d="M6.02406 16.3C2.69706 16.3 -0.105643 19.0973 1.17073 22.1697C1.93226 24.0028 3.05043 25.6879 4.48126 27.1187C7.35057 29.988 11.2422 31.6 15.3 31.6C19.3578 31.6 23.2494 29.988 26.1187 27.1187C27.5496 25.6879 28.6677 24.0029 29.4293 22.1697C30.7056 19.0973 27.9029 16.3 24.5759 16.3L21.1059 16.3C19.6953 16.3 18.5968 17.602 17.5994 18.5994V18.5994C16.9896 19.2093 16.1625 19.5519 15.3 19.5519C14.4375 19.5519 13.6104 19.2093 13.0006 18.5994V18.5994C12.0032 17.602 10.9047 16.3 9.49414 16.3L6.02406 16.3Z"/>
  </mask>
  <path d="M6.02406 16.3C2.69706 16.3 -0.105643 19.0973 1.17073 22.1697C1.93226 24.0028 3.05043 25.6879 4.48126 27.1187C7.35057 29.988 11.2422 31.6 15.3 31.6C19.3578 31.6 23.2494 29.988 26.1187 27.1187C27.5496 25.6879 28.6677 24.0029 29.4293 22.1697C30.7056 19.0973 27.9029 16.3 24.5759 16.3L21.1059 16.3C19.6953 16.3 18.5968 17.602 17.5994 18.5994V18.5994C16.9896 19.2093 16.1625 19.5519 15.3 19.5519C14.4375 19.5519 13.6104 19.2093 13.0006 18.5994V18.5994C12.0032 17.602 10.9047 16.3 9.49414 16.3L6.02406 16.3Z" stroke="white" stroke-width="4" mask="url(#path-1-inside-1_9_201)"/>
  <circle cx="15.8" cy="6.8" r="5.8" stroke="white" stroke-width="2"/>
  <path d="M3.5 30.6339V31.5H2C1.17157 31.5 0.5 30.8284 0.5 30V25.7727C2.33161 26.6909 3.5 28.5688 3.5 30.6339Z" stroke="white"/>
  <path d="M27.5 30.6339V31.5H29C29.8284 31.5 30.5 30.8284 30.5 30V25.7727C28.6684 26.6909 27.5 28.5688 27.5 30.6339Z" stroke="white"/>
</svg>